<svg width="36" height="36" viewBox="0 0 36 36" fill="none" xmlns="http://www.w3.org/2000/svg">
<g clip-path="url(#clip0_1_2)">
<path d="M24 0H12C5.37258 0 0 5.37258 0 12V24C0 30.6274 5.37258 36 12 36H24C30.6274 36 36 30.6274 36 24V12C36 5.37258 30.6274 0 24 0Z" fill="#EBF3F6"/>
<path d="M17.9998 17.884L26.1305 13.4491C25.8719 12.5983 25.3474 11.8528 24.6339 11.322C23.9205 10.7912 23.0557 10.5031 22.1665 10.5H13.8331C12.9439 10.5031 12.0791 10.7912 11.3657 11.322C10.6522 11.8528 10.1277 12.5983 9.86914 13.4491L17.9998 17.884Z" fill="#6418C3"/>
<path d="M18.3995 19.5651C18.277 19.6318 18.1398 19.6668 18.0003 19.6668C17.8609 19.6668 17.7236 19.6318 17.6012 19.5651L9.66699 15.2373V21.3335C9.66829 22.4381 10.1077 23.4972 10.8888 24.2783C11.6699 25.0594 12.729 25.4988 13.8337 25.5001H22.167C23.2717 25.4988 24.3307 25.0594 25.1118 24.2783C25.893 23.4972 26.3324 22.4381 26.3337 21.3335V15.2373L18.3995 19.5651Z" fill="#6418C3"/>
</g>
<defs>
<clipPath id="clip0_1_2">
<rect width="36" height="36" fill="white"/>
</clipPath>
</defs>
</svg>
