<svg width="24" height="24" viewBox="0 0 24 24" fill="none" xmlns="http://www.w3.org/2000/svg">
<path d="M21.0005 10.0008H7.82855L11.4145 6.41481C11.7789 6.03761 11.9805 5.53241 11.9759 5.00801C11.9713 4.48362 11.761 3.98199 11.3902 3.61118C11.0194 3.24036 10.5177 3.03002 9.99335 3.02547C9.46896 3.02091 8.96375 3.2225 8.58655 3.58681L1.58655 10.5868C1.21161 10.9619 1.00098 11.4705 1.00098 12.0008C1.00098 12.5311 1.21161 13.0398 1.58655 13.4148L8.58655 20.4148C8.77104 20.6058 8.99173 20.7582 9.23574 20.863C9.47975 20.9678 9.74219 21.023 10.0077 21.0253C10.2733 21.0276 10.5367 20.977 10.7825 20.8765C11.0282 20.7759 11.2516 20.6274 11.4393 20.4396C11.6271 20.2518 11.7756 20.0285 11.8762 19.7827C11.9768 19.5369 12.0274 19.2736 12.0251 19.008C12.0227 18.7425 11.9676 18.48 11.8628 18.236C11.7579 17.992 11.6056 17.7713 11.4145 17.5868L7.82855 14.0008H21.0005C21.531 14.0008 22.0397 13.7901 22.4148 13.415C22.7898 13.04 23.0005 12.5312 23.0005 12.0008C23.0005 11.4704 22.7898 10.9617 22.4148 10.5866C22.0397 10.2115 21.531 10.0008 21.0005 10.0008Z" fill="#202020"/>
</svg>
