<svg xmlns="http://www.w3.org/2000/svg" viewBox="0 0 288.22 400"><defs><style>.cls-1{fill:#ed8a65;stroke:#fcc485;stroke-width:15px;}.cls-1,.cls-7{stroke-miterlimit:10;}.cls-2{fill:#fecea0;}.cls-3{fill:#fcc485;}.cls-4{fill:#e6e7e8;}.cls-5{fill:#fff;}.cls-6{fill:#677272;}.cls-7{fill:#a1dde7;stroke:#677272;stroke-width:10px;}.cls-8{fill:#eb8d6c;}.cls-9{fill:#e67552;}</style></defs><g id="Layer_2" data-name="Layer 2"><g id="Layer_1-2" data-name="Layer 1"><g id="logo"><g id="baker"><rect class="cls-1" x="24.11" y="224" width="240.11" height="64" rx="20"/><path class="cls-2" d="M48.11,184h96a0,0,0,0,1,0,0V376a0,0,0,0,1,0,0h-46a50,50,0,0,1-50-50V184A0,0,0,0,1,48.11,184Z"/><path class="cls-3" d="M144.11,184h96a0,0,0,0,1,0,0V326a50,50,0,0,1-50,50h-46a0,0,0,0,1,0,0V184A0,0,0,0,1,144.11,184Z"/><path class="cls-4" d="M40.11,136h208a0,0,0,0,1,0,0v49a15,15,0,0,1-15,15h-178a15,15,0,0,1-15-15V136A0,0,0,0,1,40.11,136Z"/><rect class="cls-5" y="32" width="120.11" height="120.11" rx="60.06"/><path class="cls-4" d="M96.93,44.67a59.86,59.86,0,0,1,4.22,22.1h0a60.05,60.05,0,0,1-60.06,60.05h0A59.76,59.76,0,0,1,4.21,114.15a60.07,60.07,0,0,0,55.85,38h0a60.06,60.06,0,0,0,60.05-60.05h0A59.94,59.94,0,0,0,96.93,44.67Z"/><rect class="cls-5" x="168.11" y="31.89" width="120.11" height="120.11" rx="60.06"/><path class="cls-4" d="M265,44.56a59.86,59.86,0,0,1,4.22,22.1h0a60.05,60.05,0,0,1-60.06,60.05h0A59.79,59.79,0,0,1,172.33,114a60,60,0,0,0,55.84,38h0a60.06,60.06,0,0,0,60.05-60.06h0A59.94,59.94,0,0,0,265,44.56Z"/><rect class="cls-5" x="72.11" width="152" height="152" rx="76"/><path class="cls-4" d="M194.78,16a75.68,75.68,0,0,1,5.33,28h0a76,76,0,0,1-76,76h0a75.62,75.62,0,0,1-46.66-16,76,76,0,0,0,70.66,48h0a76,76,0,0,0,76-76h0A75.84,75.84,0,0,0,194.78,16Z"/><path class="cls-6" d="M164.78,328a11.34,11.34,0,0,1,11.33,11.33V376h-64V339.33A11.35,11.35,0,0,1,123.44,328h41.34m0-24H123.44a35.33,35.33,0,0,0-35.33,35.33V380a20,20,0,0,0,20,20h72a20,20,0,0,0,20-20V339.33A35.33,35.33,0,0,0,164.78,304Z"/><path class="cls-6" d="M176.11,352a8,8,0,0,1-8,8h-48a8,8,0,0,1-8-8v24h64V352Z"/><rect class="cls-7" x="72.11" y="232" width="56" height="40" rx="8.15"/><rect class="cls-7" x="160.11" y="232" width="56" height="40" rx="8.15"/><rect class="cls-7" x="128.11" y="248" width="32"/><path class="cls-8" d="M138.11,276h6a0,0,0,0,1,0,0v40a0,0,0,0,1,0,0h-11a5,5,0,0,1-5-5V286A10,10,0,0,1,138.11,276Z"/><path class="cls-9" d="M149.11,276h11a0,0,0,0,1,0,0v40a0,0,0,0,1,0,0h-6a10,10,0,0,1-10-10V281A5,5,0,0,1,149.11,276Z" transform="translate(304.22 592) rotate(180)"/></g></g></g></g></svg>